<svg width="20" height="20" viewBox="0 0 20 20" fill="none" xmlns="http://www.w3.org/2000/svg">
<g clip-path="url(#clip0_9_994)">
<path d="M10.5 2C11.8526 2 13.1498 2.53233 14.1062 3.47988C15.0627 4.42743 15.6 5.71259 15.6 7.05263V7.89474H19V9.57895H18.0081L17.3646 17.2278C17.3469 17.4382 17.2501 17.6344 17.0933 17.7774C16.9365 17.9204 16.7311 17.9999 16.518 18H4.482C4.26886 17.9999 4.06354 17.9204 3.90674 17.7774C3.74993 17.6344 3.65309 17.4382 3.6354 17.2278L2.9911 9.57895H2V7.89474H5.4V7.05263C5.4 5.71259 5.93732 4.42743 6.89376 3.47988C7.85019 2.53233 9.1474 2 10.5 2ZM16.3021 9.57895H4.69705L5.264 16.3158H15.7352L16.3021 9.57895ZM11.35 11.2632V14.6316H9.65V11.2632H11.35ZM7.95 11.2632V14.6316H6.25V11.2632H7.95ZM14.75 11.2632V14.6316H13.05V11.2632H14.75ZM10.5 3.68421C9.62769 3.68421 8.78876 4.01637 8.15671 4.61198C7.52466 5.20759 7.14787 6.02109 7.10425 6.88421L7.1 7.05263V7.89474H13.9V7.05263C13.9 6.18843 13.5647 5.35728 12.9635 4.73111C12.3623 4.10493 11.5412 3.73163 10.67 3.68842L10.5 3.68421Z" fill="#212121"/>
</g>
<defs>
<clipPath id="clip0_9_994">
<rect width="20" height="20" fill="white"/>
</clipPath>
</defs>
</svg>
