<svg width="18" height="18" viewBox="0 0 18 18" fill="none" xmlns="http://www.w3.org/2000/svg">
<g clip-path="url(#clip0_9_798)">
<path d="M9 18L4.05022 13.3137C3.07127 12.3868 2.40459 11.2059 2.1345 9.92033C1.86441 8.63474 2.00304 7.30219 2.53285 6.0912C3.06267 4.8802 3.95988 3.84514 5.11102 3.11692C6.26216 2.38869 7.61554 2 9 2C10.3845 2 11.7378 2.38869 12.889 3.11692C14.0401 3.84514 14.9373 4.8802 15.4671 6.0912C15.997 7.30219 16.1356 8.63474 15.8655 9.92033C15.5954 11.2059 14.9287 12.3868 13.9498 13.3137L9 18ZM12.85 12.2724C13.6114 11.5515 14.1298 10.6331 14.3399 9.63316C14.5499 8.63327 14.442 7.59687 14.03 6.65501C13.6179 5.71315 12.92 4.90813 12.0247 4.34175C11.1294 3.77538 10.0768 3.47307 9 3.47307C7.92321 3.47307 6.87061 3.77538 5.97529 4.34175C5.07997 4.90813 4.38214 5.71315 3.97004 6.65501C3.55795 7.59687 3.4501 8.63327 3.66013 9.63316C3.87016 10.6331 4.38864 11.5515 5.15 12.2724L9 15.9175L12.85 12.2724V12.2724ZM9 10.1001C8.58744 10.1001 8.19178 9.94495 7.90006 9.66876C7.60833 9.39256 7.44445 9.01796 7.44445 8.62736C7.44445 8.23676 7.60833 7.86216 7.90006 7.58596C8.19178 7.30977 8.58744 7.1546 9 7.1546C9.41256 7.1546 9.80822 7.30977 10.0999 7.58596C10.3917 7.86216 10.5556 8.23676 10.5556 8.62736C10.5556 9.01796 10.3917 9.39256 10.0999 9.66876C9.80822 9.94495 9.41256 10.1001 9 10.1001Z" fill="#212121"/>
</g>
<defs>
<clipPath id="clip0_9_798">
<rect width="18" height="18" fill="white"/>
</clipPath>
</defs>
</svg>
