<svg width="19" height="19" viewBox="0 0 19 19" fill="none" xmlns="http://www.w3.org/2000/svg">
<path d="M14.994 13.6715L19 17.6765L17.6765 19L13.6715 14.994C12.1813 16.1887 10.3278 16.8384 8.41784 16.8357C3.77119 16.8357 0 13.0645 0 8.41784C0 3.77119 3.77119 0 8.41784 0C13.0645 0 16.8357 3.77119 16.8357 8.41784C16.8384 10.3278 16.1887 12.1813 14.994 13.6715ZM13.1178 12.9775C14.3048 11.7568 14.9677 10.1205 14.965 8.41784C14.965 4.80004 12.0347 1.87063 8.41784 1.87063C4.80004 1.87063 1.87063 4.80004 1.87063 8.41784C1.87063 12.0347 4.80004 14.965 8.41784 14.965C10.1205 14.9677 11.7568 14.3048 12.9775 13.1178L13.1178 12.9775Z" fill="#828282"/>
</svg>
