<svg width="25" height="24" viewBox="0 0 25 24" fill="none" xmlns="http://www.w3.org/2000/svg">
<path d="M22.209 15.5C22.489 15.5 22.709 15.72 22.709 16V17C22.709 18.66 21.369 20 19.709 20C19.709 18.35 18.359 17 16.709 17C15.059 17 13.709 18.35 13.709 20H11.709C11.709 18.35 10.359 17 8.70898 17C7.05898 17 5.70898 18.35 5.70898 20C4.04898 20 2.70898 18.66 2.70898 17V15C2.70898 14.45 3.15898 14 3.70898 14H13.209C14.589 14 15.709 12.88 15.709 11.5V6C15.709 5.45 16.159 5 16.709 5H17.549C18.269 5 18.929 5.39 19.289 6.01L19.929 7.13C20.019 7.29 19.899 7.5 19.709 7.5C18.329 7.5 17.209 8.62 17.209 10V13C17.209 14.38 18.329 15.5 19.709 15.5H22.209Z" fill="white"/>
<path d="M8.70898 22C9.81355 22 10.709 21.1046 10.709 20C10.709 18.8954 9.81355 18 8.70898 18C7.60441 18 6.70898 18.8954 6.70898 20C6.70898 21.1046 7.60441 22 8.70898 22Z" fill="white"/>
<path d="M16.709 22C17.8136 22 18.709 21.1046 18.709 20C18.709 18.8954 17.8136 18 16.709 18C15.6044 18 14.709 18.8954 14.709 20C14.709 21.1046 15.6044 22 16.709 22Z" fill="white"/>
<path d="M22.709 12.53V14H19.709C19.159 14 18.709 13.55 18.709 13V10C18.709 9.45 19.159 9 19.709 9H20.999L22.449 11.54C22.619 11.84 22.709 12.18 22.709 12.53Z" fill="white"/>
<path d="M13.789 2H6.39898C4.60898 2 3.10898 3.28 2.77898 4.98H7.14898C7.52898 4.98 7.82898 5.29 7.82898 5.67C7.82898 6.05 7.52898 6.35 7.14898 6.35H2.70898V7.73H5.30898C5.68898 7.73 5.99898 8.04 5.99898 8.42C5.99898 8.8 5.68898 9.1 5.30898 9.1H2.70898V10.48H3.47898C3.85898 10.48 4.16898 10.79 4.16898 11.17C4.16898 11.55 3.85898 11.85 3.47898 11.85H2.70898V12.08C2.70898 12.63 3.15898 13.08 3.70898 13.08H12.859C13.879 13.08 14.709 12.25 14.709 11.23V2.92C14.709 2.41 14.299 2 13.789 2Z" fill="white"/>
<path d="M2.77898 4.97998H2.62898H1.64898C1.26898 4.97998 0.958984 5.28998 0.958984 5.66998C0.958984 6.04998 1.26898 6.34998 1.64898 6.34998H2.55898H2.70898V5.68998C2.70898 5.44998 2.73898 5.20998 2.77898 4.97998Z" fill="white"/>
<path d="M2.55898 7.72998H1.64898C1.26898 7.72998 0.958984 8.03998 0.958984 8.41998C0.958984 8.79998 1.26898 9.09998 1.64898 9.09998H2.55898H2.70898V7.72998H2.55898Z" fill="white"/>
<path d="M2.55898 10.48H1.64898C1.26898 10.48 0.958984 10.79 0.958984 11.17C0.958984 11.55 1.26898 11.85 1.64898 11.85H2.55898H2.70898V10.48H2.55898Z" fill="white"/>
</svg>
