<svg width="25" height="24" viewBox="0 0 25 24" fill="none" xmlns="http://www.w3.org/2000/svg">
<path d="M22.3679 13.64V14.64C22.3679 14.91 22.1579 15.13 21.8779 15.14H20.4179C19.8879 15.14 19.4079 14.75 19.3679 14.23C19.3379 13.92 19.4579 13.63 19.6579 13.43C19.8379 13.24 20.0879 13.14 20.3579 13.14H21.8679C22.1579 13.15 22.3679 13.37 22.3679 13.64Z" fill="white"/>
<path d="M18.9082 12.69C18.4082 13.18 18.1682 13.91 18.3682 14.67C18.6282 15.6 19.5382 16.19 20.4982 16.19H21.3682C21.9182 16.19 22.3682 16.64 22.3682 17.19V17.38C22.3682 19.45 20.6782 21.14 18.6082 21.14H7.12816C5.05816 21.14 3.36816 19.45 3.36816 17.38V10.65C3.36816 9.42001 3.95816 8.33001 4.86816 7.65001C5.49816 7.17001 6.27816 6.89001 7.12816 6.89001H18.6082C20.6782 6.89001 22.3682 8.58001 22.3682 10.65V11.09C22.3682 11.64 21.9182 12.09 21.3682 12.09H20.3482C19.7882 12.09 19.2782 12.31 18.9082 12.69Z" fill="white"/>
<path d="M17.118 4.82C17.388 5.09 17.158 5.51 16.778 5.51L9.09803 5.5C8.65803 5.5 8.42803 4.96 8.74803 4.65L10.368 3.02C11.738 1.66 13.958 1.66 15.328 3.02L17.078 4.79C17.088 4.8 17.108 4.81 17.118 4.82Z" fill="white"/>
</svg>
